<svg width="286" height="134" viewBox="0 0 286 134" fill="none" xmlns="http://www.w3.org/2000/svg">
<path d="M20.5078 47.6016L20.918 54.9258C25.6055 49.2617 31.7578 46.4297 39.375 46.4297C52.5781 46.4297 59.2969 53.9883 59.5312 69.1055V111H45.293V69.9258C45.293 65.9023 44.4141 62.9336 42.6562 61.0195C40.9375 59.0664 38.1055 58.0898 34.1602 58.0898C28.418 58.0898 24.1406 60.6875 21.3281 65.8828V111H7.08984V47.6016H20.5078ZM102.012 112.172C92.9883 112.172 85.6641 109.34 80.0391 103.676C74.4531 97.9727 71.6602 90.3945 71.6602 80.9414V79.1836C71.6602 72.8555 72.8711 67.2109 75.293 62.25C77.7539 57.25 81.1914 53.3633 85.6055 50.5898C90.0195 47.8164 94.9414 46.4297 100.371 46.4297C109.004 46.4297 115.664 49.1836 120.352 54.6914C125.078 60.1992 127.441 67.9922 127.441 78.0703V83.8125H86.0156C86.4453 89.0469 88.1836 93.1875 91.2305 96.2344C94.3164 99.2812 98.1836 100.805 102.832 100.805C109.355 100.805 114.668 98.168 118.77 92.8945L126.445 100.219C123.906 104.008 120.508 106.957 116.25 109.066C112.031 111.137 107.285 112.172 102.012 112.172ZM100.312 57.8555C96.4062 57.8555 93.2422 59.2227 90.8203 61.957C88.4375 64.6914 86.9141 68.5 86.25 73.3828H113.379V72.3281C113.066 67.5625 111.797 63.9688 109.57 61.5469C107.344 59.0859 104.258 57.8555 100.312 57.8555ZM194.238 91.3711L204.316 47.6016H218.203L200.918 111H189.199L175.605 67.4648L162.246 111H150.527L133.184 47.6016H147.07L157.324 90.9023L170.332 47.6016H181.055L194.238 91.3711ZM263.262 93.7734C263.262 91.2344 262.207 89.3008 260.098 87.9727C258.027 86.6445 254.57 85.4727 249.727 84.457C244.883 83.4414 240.84 82.1523 237.598 80.5898C230.488 77.1523 226.934 72.1719 226.934 65.6484C226.934 60.1797 229.238 55.6094 233.848 51.9375C238.457 48.2656 244.316 46.4297 251.426 46.4297C259.004 46.4297 265.117 48.3047 269.766 52.0547C274.453 55.8047 276.797 60.668 276.797 66.6445H262.559C262.559 63.9102 261.543 61.6445 259.512 59.8477C257.48 58.0117 254.785 57.0938 251.426 57.0938C248.301 57.0938 245.742 57.8164 243.75 59.2617C241.797 60.707 240.82 62.6406 240.82 65.0625C240.82 67.25 241.738 68.9492 243.574 70.1602C245.41 71.3711 249.121 72.6016 254.707 73.8516C260.293 75.0625 264.668 76.5273 267.832 78.2461C271.035 79.9258 273.398 81.957 274.922 84.3398C276.484 86.7227 277.266 89.6133 277.266 93.0117C277.266 98.7148 274.902 103.344 270.176 106.898C265.449 110.414 259.258 112.172 251.602 112.172C246.406 112.172 241.777 111.234 237.715 109.359C233.652 107.484 230.488 104.906 228.223 101.625C225.957 98.3438 224.824 94.8086 224.824 91.0195H238.652C238.848 94.3789 240.117 96.9766 242.461 98.8125C244.805 100.609 247.91 101.508 251.777 101.508C255.527 101.508 258.379 100.805 260.332 99.3984C262.285 97.9531 263.262 96.0781 263.262 93.7734Z" fill="black"/>
</svg>
